<?xml version="1.0" standalone="no"?>
<!DOCTYPE svg PUBLIC "-//W3C//DTD SVG 20010904//EN"
 "http://www.w3.org/TR/2001/REC-SVG-20010904/DTD/svg10.dtd">
<svg version="1.0" xmlns="http://www.w3.org/2000/svg"
 width="128.000000pt" height="128.000000pt" viewBox="0 0 128.000000 128.000000"
 preserveAspectRatio="xMidYMid meet">
<metadata>
Created by potrace 1.14, written by Peter Selinger 2001-2017
</metadata>
<g transform="translate(0.000000,128.000000) scale(0.100000,-0.100000)"
fill="#000000" stroke="none">
<path d="M75 1270 c-11 -4 -31 -20 -45 -35 l-25 -27 -3 -554 c-2 -492 -1 -559
14 -589 31 -66 21 -65 629 -65 552 0 567 1 602 36 31 30 33 75 33 611 0 496
-2 548 -17 574 -35 60 -29 59 -625 58 -298 0 -552 -4 -563 -9z"/>
</g>
</svg>
